<svg width="137" height="132" viewBox="0 0 137 132" fill="none" xmlns="http://www.w3.org/2000/svg">
<g clip-path="url(#clip0_58230_74407)">
<path d="M53.3064 28.6055H27.8839C27.3771 28.6055 26.8911 28.8078 26.5328 29.1679C26.1745 29.5281 25.9731 30.0166 25.9731 30.5259V44.6466C25.9733 45.1558 26.1747 45.6442 26.533 46.0043C26.8913 46.3644 27.3772 46.5668 27.8839 46.567H30.0238V50.9393L33.9758 46.567H53.3064C53.8132 46.567 54.2992 46.3647 54.6575 46.0045C55.0159 45.6444 55.2172 45.1559 55.2172 44.6466V30.5259C55.2173 30.2737 55.1679 30.0239 55.0719 29.7909C54.9759 29.5578 54.8352 29.3461 54.6577 29.1677C54.4803 28.9894 54.2696 28.8479 54.0377 28.7515C53.8059 28.655 53.5574 28.6054 53.3064 28.6055Z" fill="#CEE7F4"/>
<g style="mix-blend-mode:multiply">
<g style="mix-blend-mode:multiply">
<path d="M46.2377 36.6537C45.9917 36.6544 45.748 36.606 45.5207 36.5114C45.2935 36.4168 45.0871 36.2779 44.9136 36.1027C44.6766 35.8656 44.3558 35.7325 44.0214 35.7325C43.687 35.7325 43.3662 35.8656 43.1293 36.1027C42.7773 36.4551 42.3007 36.653 41.8038 36.653C41.3068 36.653 40.8302 36.4551 40.4782 36.1027C40.2416 35.8653 39.9208 35.732 39.5864 35.732C39.252 35.732 38.9313 35.8653 38.6946 36.1027C38.5206 36.2777 38.314 36.4165 38.0865 36.5112C37.8591 36.606 37.6153 36.6547 37.3691 36.6547C37.1229 36.6547 36.8791 36.606 36.6516 36.5112C36.4242 36.4165 36.2176 36.2777 36.0436 36.1027C35.8066 35.8656 35.4858 35.7325 35.1514 35.7325C34.817 35.7325 34.4962 35.8656 34.2592 36.1027C33.9073 36.4551 33.4307 36.653 32.9337 36.653C32.4368 36.653 31.9602 36.4551 31.6082 36.1027C31.5508 36.045 31.5186 35.9668 31.5186 35.8852C31.5186 35.8036 31.5508 35.7254 31.6082 35.6677C31.6657 35.61 31.7435 35.5776 31.8247 35.5776C31.9059 35.5776 31.9838 35.61 32.0412 35.6677C32.2781 35.9051 32.5991 36.0385 32.9337 36.0385C33.2684 36.0385 33.5893 35.9051 33.8262 35.6677C34.178 35.3149 34.6547 35.1168 35.1518 35.1168C35.6488 35.1168 36.1255 35.3149 36.4773 35.6677C36.5943 35.7855 36.7333 35.8789 36.8864 35.9426C37.0394 36.0064 37.2034 36.0392 37.3691 36.0392C37.5347 36.0392 37.6988 36.0064 37.8518 35.9426C38.0048 35.8789 38.1439 35.7855 38.2609 35.6677C38.6125 35.3146 39.0893 35.1162 39.5864 35.1162C40.0836 35.1162 40.5604 35.3146 40.9119 35.6677C41.1489 35.9052 41.47 36.0385 41.8048 36.0385C42.1395 36.0385 42.4606 35.9052 42.6976 35.6677C43.0494 35.3149 43.5261 35.1168 44.0231 35.1168C44.5202 35.1168 44.9969 35.3149 45.3486 35.6677C45.4657 35.7855 45.6047 35.8789 45.7577 35.9426C45.9108 36.0064 46.0748 36.0392 46.2405 36.0392C46.4061 36.0392 46.5702 36.0064 46.7232 35.9426C46.8762 35.8789 47.0152 35.7855 47.1323 35.6677C47.4839 35.3147 47.9607 35.1165 48.4578 35.1165C48.9549 35.1165 49.4316 35.3147 49.7833 35.6677C49.8407 35.7253 49.873 35.8034 49.8731 35.8849C49.8731 35.9664 49.841 36.0446 49.7836 36.1023C49.7263 36.16 49.6485 36.1924 49.5674 36.1925C49.4862 36.1926 49.4084 36.1603 49.351 36.1027C49.1142 35.8653 48.7933 35.732 48.4588 35.732C48.1243 35.732 47.8034 35.8653 47.5666 36.1027C47.3926 36.2785 47.1854 36.4177 46.9573 36.5123C46.7292 36.6069 46.4846 36.655 46.2377 36.6537Z" fill="#79B9D3"/>
</g>
<g style="mix-blend-mode:multiply">
<path d="M46.2377 39.0453C45.9917 39.046 45.748 38.9976 45.5207 38.903C45.2935 38.8084 45.0871 38.6695 44.9136 38.4943C44.6766 38.2572 44.3558 38.1241 44.0214 38.1241C43.687 38.1241 43.3662 38.2572 43.1293 38.4943C42.7772 38.8465 42.3006 39.0443 41.8038 39.0443C41.3069 39.0443 40.8303 38.8465 40.4782 38.4943C40.2416 38.2569 39.9208 38.1236 39.5864 38.1236C39.252 38.1236 38.9313 38.2569 38.6946 38.4943C38.5206 38.6693 38.314 38.8081 38.0865 38.9028C37.8591 38.9976 37.6153 39.0463 37.3691 39.0463C37.1229 39.0463 36.8791 38.9976 36.6516 38.9028C36.4242 38.8081 36.2176 38.6693 36.0436 38.4943C35.8066 38.2572 35.4858 38.1241 35.1514 38.1241C34.817 38.1241 34.4962 38.2572 34.2592 38.4943C33.9072 38.8465 33.4306 39.0443 32.9337 39.0443C32.4369 39.0443 31.9602 38.8465 31.6082 38.4943C31.5508 38.4366 31.5186 38.3584 31.5186 38.2768C31.5186 38.1952 31.5508 38.117 31.6082 38.0593C31.6657 38.0016 31.7435 37.9692 31.8247 37.9692C31.9059 37.9692 31.9838 38.0016 32.0412 38.0593C32.2783 38.2964 32.5992 38.4295 32.9337 38.4295C33.2683 38.4295 33.5892 38.2964 33.8262 38.0593C34.178 37.7065 34.6547 37.5084 35.1518 37.5084C35.6488 37.5084 36.1255 37.7065 36.4773 38.0593C36.5943 38.1771 36.7333 38.2705 36.8864 38.3342C37.0394 38.398 37.2034 38.4308 37.3691 38.4308C37.5347 38.4308 37.6988 38.398 37.8518 38.3342C38.0048 38.2705 38.1439 38.1771 38.2609 38.0593C38.6125 37.7062 39.0893 37.5078 39.5864 37.5078C40.0836 37.5078 40.5604 37.7062 40.9119 38.0593C41.1491 38.2964 41.4701 38.4296 41.8048 38.4296C42.1394 38.4296 42.4604 38.2964 42.6976 38.0593C43.0494 37.7065 43.5261 37.5084 44.0231 37.5084C44.5202 37.5084 44.9969 37.7065 45.3486 38.0593C45.4657 38.1771 45.6047 38.2705 45.7577 38.3342C45.9108 38.398 46.0748 38.4308 46.2405 38.4308C46.4061 38.4308 46.5702 38.398 46.7232 38.3342C46.8762 38.2705 47.0152 38.1771 47.1323 38.0593C47.4839 37.7063 47.9607 37.5081 48.4578 37.5081C48.9549 37.5081 49.4316 37.7063 49.7833 38.0593C49.8117 38.0878 49.8343 38.1217 49.8497 38.1589C49.8651 38.1962 49.873 38.2362 49.8731 38.2765C49.8731 38.3169 49.8652 38.3569 49.8499 38.3942C49.8345 38.4315 49.812 38.4654 49.7836 38.4939C49.7552 38.5225 49.7215 38.5452 49.6844 38.5606C49.6473 38.5761 49.6076 38.5841 49.5674 38.5841C49.5272 38.5841 49.4874 38.5762 49.4503 38.5608C49.4132 38.5454 49.3794 38.5228 49.351 38.4943C49.1142 38.2569 48.7933 38.1235 48.4588 38.1235C48.1243 38.1235 47.8034 38.2569 47.5666 38.4943C47.3926 38.6701 47.1854 38.8093 46.9573 38.9039C46.7292 38.9985 46.4846 39.0466 46.2377 39.0453Z" fill="#79B9D3"/>
</g>
<g style="mix-blend-mode:multiply">
<path d="M37.3711 41.2338C37.1251 41.2345 36.8814 41.1861 36.6541 41.0915C36.4268 40.9969 36.2205 40.858 36.047 40.6828C35.81 40.4457 35.4892 40.3126 35.1548 40.3126C34.8204 40.3126 34.4996 40.4457 34.2627 40.6828C33.9106 41.035 33.434 41.2328 32.9372 41.2328C32.4403 41.2328 31.9637 41.035 31.6116 40.6828C31.5542 40.6251 31.522 40.5468 31.522 40.4653C31.522 40.3837 31.5542 40.3055 31.6116 40.2478C31.6691 40.1901 31.7469 40.1577 31.8281 40.1577C31.9094 40.1577 31.9872 40.1901 32.0446 40.2478C32.2817 40.4849 32.6026 40.618 32.9372 40.618C33.2717 40.618 33.5926 40.4849 33.8297 40.2478C34.1814 39.895 34.6581 39.6969 35.1552 39.6969C35.6522 39.6969 36.1289 39.895 36.4807 40.2478C36.5977 40.3655 36.7367 40.459 36.8898 40.5227C37.0428 40.5865 37.2068 40.6193 37.3725 40.6193C37.5381 40.6193 37.7022 40.5865 37.8552 40.5227C38.0082 40.459 38.1473 40.3655 38.2643 40.2478C38.6159 39.8947 39.0927 39.6963 39.5898 39.6963C40.087 39.6963 40.5637 39.8947 40.9153 40.2478C40.9727 40.3054 41.005 40.3835 41.0051 40.465C41.0051 40.5465 40.973 40.6247 40.9156 40.6824C40.8583 40.7401 40.7805 40.7725 40.6994 40.7726C40.6183 40.7727 40.5404 40.7404 40.483 40.6828C40.2463 40.4454 39.9256 40.3121 39.5912 40.3121C39.2568 40.3121 38.936 40.4454 38.6993 40.6828C38.5253 40.8583 38.3182 40.9975 38.0902 41.0921C37.8622 41.1867 37.6178 41.2348 37.3711 41.2338Z" fill="#79B9D3"/>
</g>
</g>
<path d="M120.207 14.4883H90.6545C90.1716 14.4883 89.7084 14.6811 89.3669 15.0243C89.0254 15.3676 88.8335 15.8331 88.8335 16.3185V33.6426C88.8337 34.1279 89.0256 34.5933 89.3671 34.9365C89.7085 35.2797 90.1716 35.4726 90.6545 35.4728H112.832L116.784 39.8417V35.4728H120.207C120.689 35.4728 121.153 35.28 121.494 34.9367C121.836 34.5935 122.028 34.128 122.028 33.6426V16.3185C122.028 16.0781 121.981 15.8401 121.889 15.618C121.798 15.3959 121.664 15.1941 121.494 15.0241C121.325 14.8542 121.124 14.7194 120.904 14.6274C120.683 14.5355 120.446 14.4882 120.207 14.4883Z" fill="#155D72"/>
<path d="M111.163 25.6028C110.929 25.6037 110.697 25.5578 110.481 25.4679C110.264 25.378 110.068 25.2458 109.903 25.0791C109.684 24.8592 109.386 24.7357 109.076 24.7357C108.766 24.7357 108.469 24.8592 108.249 25.0791C107.915 25.4142 107.462 25.6023 106.989 25.6023C106.517 25.6023 106.063 25.4142 105.729 25.0791C105.509 24.8592 105.212 24.7357 104.902 24.7357C104.592 24.7357 104.295 24.8592 104.075 25.0791C103.741 25.4144 103.288 25.6028 102.815 25.6028C102.343 25.6028 101.89 25.4144 101.556 25.0791C101.336 24.859 101.039 24.7354 100.729 24.7354C100.418 24.7354 100.121 24.859 99.9013 25.0791C99.5669 25.4141 99.1138 25.6023 98.6414 25.6023C98.1691 25.6023 97.716 25.4141 97.3815 25.0791C97.3515 25.051 97.3274 25.017 97.3107 24.9793C97.2939 24.9416 97.285 24.901 97.2842 24.8597C97.2835 24.8184 97.2911 24.7775 97.3064 24.7392C97.3218 24.7009 97.3447 24.6662 97.3738 24.637C97.4028 24.6078 97.4374 24.5848 97.4755 24.5694C97.5136 24.5539 97.5544 24.5463 97.5955 24.547C97.6365 24.5478 97.677 24.5568 97.7146 24.5736C97.7521 24.5904 97.7858 24.6146 97.8139 24.6448C98.0336 24.8648 98.3312 24.9883 98.6414 24.9883C98.9517 24.9883 99.2493 24.8648 99.469 24.6448C99.8036 24.3101 100.256 24.1222 100.729 24.1222C101.201 24.1222 101.654 24.3101 101.988 24.6448C102.208 24.8649 102.505 24.9885 102.815 24.9885C103.126 24.9885 103.423 24.8649 103.643 24.6448C103.977 24.3095 104.43 24.1211 104.902 24.1211C105.375 24.1211 105.828 24.3095 106.162 24.6448C106.381 24.8647 106.679 24.9882 106.989 24.9882C107.299 24.9882 107.597 24.8647 107.816 24.6448C108.151 24.3099 108.604 24.1219 109.076 24.1219C109.549 24.1219 110.002 24.3099 110.336 24.6448C110.555 24.865 110.853 24.9887 111.163 24.9887C111.473 24.9887 111.771 24.865 111.99 24.6448C112.324 24.3095 112.777 24.1211 113.25 24.1211C113.722 24.1211 114.175 24.3095 114.509 24.6448C114.566 24.7025 114.599 24.7807 114.599 24.8622C114.598 24.9437 114.566 25.0218 114.509 25.0794C114.451 25.137 114.373 25.1693 114.292 25.1693C114.211 25.1692 114.133 25.1368 114.076 25.0791C113.857 24.8592 113.559 24.7357 113.249 24.7357C112.939 24.7357 112.642 24.8592 112.422 25.0791C112.257 25.2458 112.061 25.378 111.845 25.4679C111.629 25.5578 111.397 25.6037 111.163 25.6028Z" fill="#79B9D3"/>
<g style="mix-blend-mode:screen">
<g style="mix-blend-mode:screen">
<path d="M106.965 30.6395C106.925 30.6395 106.885 30.6316 106.848 30.6161C106.811 30.6006 106.777 30.5779 106.749 30.5493L103.683 27.4675C103.625 27.4098 103.593 27.3317 103.593 27.2501C103.593 27.1686 103.625 27.0903 103.682 27.0326C103.74 26.9749 103.817 26.9424 103.898 26.9424C103.98 26.9423 104.057 26.9747 104.115 27.0323L107.181 30.1127C107.223 30.1558 107.252 30.2106 107.264 30.2703C107.276 30.3299 107.27 30.3917 107.247 30.4479C107.223 30.5041 107.184 30.5521 107.134 30.5858C107.083 30.6195 107.024 30.6375 106.964 30.6374L106.965 30.6395Z" fill="#EFF9FF"/>
</g>
<g style="mix-blend-mode:screen">
<path d="M103.897 30.6387C103.837 30.6387 103.778 30.6206 103.728 30.5868C103.677 30.553 103.638 30.505 103.615 30.4489C103.592 30.3928 103.586 30.331 103.598 30.2714C103.609 30.2118 103.639 30.157 103.681 30.114L106.748 27.0315C106.805 26.9738 106.883 26.9414 106.964 26.9414C107.045 26.9414 107.123 26.9738 107.181 27.0315C107.238 27.0892 107.27 27.1675 107.27 27.2491C107.27 27.3307 107.238 27.409 107.181 27.4667L104.114 30.5485C104.085 30.5772 104.052 30.5999 104.014 30.6153C103.977 30.6308 103.938 30.6388 103.897 30.6387Z" fill="#EFF9FF"/>
</g>
</g>
<path d="M36.0638 15.8906H16.3912C16.1403 15.8906 15.8917 15.9403 15.6599 16.0369C15.428 16.1334 15.2173 16.2749 15.0399 16.4533C14.8624 16.6317 14.7217 16.8435 14.6257 17.0766C14.5297 17.3097 14.4804 17.5595 14.4805 17.8117V29.8992C14.4804 30.1515 14.5297 30.4013 14.6257 30.6344C14.7217 30.8674 14.8624 31.0792 15.0399 31.2576C15.2173 31.436 15.428 31.5775 15.6599 31.6741C15.8917 31.7706 16.1403 31.8203 16.3912 31.8203H17.8642V36.1927L21.8163 31.8203H36.0638C36.5706 31.8202 37.0566 31.6177 37.4149 31.2574C37.7732 30.8972 37.9745 30.4086 37.9745 29.8992V17.8117C37.9745 17.3023 37.7732 16.8138 37.4149 16.4535C37.0566 16.0933 36.5706 15.8908 36.0638 15.8906Z" fill="#79B9D3"/>
<path d="M23.1122 23.2393H22.2163V24.4438H23.1122V23.2393Z" fill="#155D72"/>
<path d="M25.4926 23.2393H24.5967V24.4438H25.4926V23.2393Z" fill="#155D72"/>
<path d="M27.873 23.2393H26.9771V24.4438H27.873V23.2393Z" fill="#155D72"/>
<path d="M30.2538 23.2393H29.3579V24.4438H30.2538V23.2393Z" fill="#155D72"/>
<path d="M95.1414 0.398438H64.5228C64.0696 0.398438 63.635 0.57939 63.3145 0.901487C62.994 1.22358 62.814 1.66044 62.814 2.11595V17.5155C62.814 17.971 62.994 18.4079 63.3145 18.73C63.635 19.0521 64.0696 19.233 64.5228 19.233H81.6008V23.6054L85.5529 19.233H95.1414C95.5945 19.2329 96.0291 19.0518 96.3495 18.7298C96.67 18.4077 96.8501 17.971 96.8502 17.5155V2.11595C96.8501 1.66049 96.67 1.22374 96.3495 0.901685C96.0291 0.579627 95.5945 0.398619 95.1414 0.398438Z" fill="#A5D2E7"/>
<path d="M79.063 10.1626C79.063 10.0101 79.108 9.86102 79.1923 9.73424C79.2767 9.60746 79.3965 9.50864 79.5367 9.45029C79.677 9.39194 79.8313 9.37667 79.9802 9.40642C80.129 9.43616 80.2658 9.50959 80.3731 9.61741C80.4804 9.72523 80.5535 9.8626 80.5831 10.0122C80.6127 10.1617 80.5975 10.3167 80.5395 10.4576C80.4814 10.5985 80.383 10.7189 80.2568 10.8036C80.1306 10.8883 79.9822 10.9335 79.8304 10.9335C79.6269 10.9335 79.4317 10.8523 79.2878 10.7077C79.1438 10.5631 79.063 10.367 79.063 10.1626Z" fill="#EFF9FF"/>
<path d="M82.9272 10.1629C82.9271 10.0103 82.972 9.86104 83.0564 9.73406C83.1407 9.60707 83.2606 9.50807 83.4009 9.44956C83.5413 9.39105 83.6957 9.37567 83.8448 9.40537C83.9938 9.43507 84.1307 9.5085 84.2382 9.61639C84.3457 9.72427 84.4189 9.86176 84.4486 10.0115C84.4783 10.1612 84.4632 10.3163 84.405 10.4574C84.3469 10.5984 84.2485 10.719 84.1222 10.8038C83.9958 10.8886 83.8473 10.9339 83.6954 10.9339C83.4918 10.9339 83.2965 10.8527 83.1525 10.7081C83.0084 10.5636 82.9274 10.3675 82.9272 10.1629Z" fill="#EFF9FF"/>
<path d="M76.7347 10.1626C76.7347 10.0101 76.6897 9.86102 76.6053 9.73424C76.521 9.60746 76.4011 9.50864 76.2609 9.45029C76.1206 9.39194 75.9663 9.37667 75.8175 9.40642C75.6686 9.43616 75.5318 9.50959 75.4245 9.61741C75.3172 9.72523 75.2441 9.8626 75.2145 10.0122C75.1848 10.1617 75.2 10.3167 75.2581 10.4576C75.3162 10.5985 75.4146 10.7189 75.5408 10.8036C75.667 10.8883 75.8154 10.9335 75.9672 10.9335C76.1707 10.9335 76.3659 10.8523 76.5099 10.7077C76.6538 10.5631 76.7347 10.367 76.7347 10.1626Z" fill="#EFF9FF"/>
<path d="M74.0273 50.3809C74.0273 50.3809 82.6706 54.617 85 59.1716C87.1023 63.2818 82.94 66.5356 80.0753 65.0798C77.2089 63.6241 74.0273 50.3809 74.0273 50.3809Z" fill="#F29892"/>
<path d="M67.939 41.1218C67.7527 40.0798 66.2602 40.3267 65.7909 40.6485C65.3217 40.9703 64.1832 41.3415 63.9291 41.8608C63.675 42.3818 64.0324 42.5521 64.0324 42.5521C64.0324 42.5521 65.7282 42.4278 66.184 42.5759C66.477 42.6712 66.721 43.32 66.8396 44.001C67.2512 43.1293 67.607 42.2711 67.607 42.2711C67.607 42.2711 68.061 41.808 67.939 41.1218Z" fill="#4F4F4F"/>
<path d="M66.1838 42.5755C65.7281 42.4275 64.0323 42.5517 64.0323 42.5517C64.0323 42.5517 63.9137 42.9976 64.3085 44.1276C64.7032 45.2576 65.291 45.855 65.7281 45.8022C65.9483 45.7767 66.4227 44.8815 66.8395 44C66.7209 43.3192 66.4769 42.6708 66.1838 42.5755Z" fill="#4F4F4F"/>
<path d="M95.7817 130.706H37.0978C34.209 130.706 22.1102 130.866 24.8253 131.22C27.3438 131.548 44.6669 131.734 47.5602 131.734H100.439C109.229 131.734 117.027 131.503 114.152 131.22C111.277 130.937 105.353 130.706 95.7863 130.706H95.7817Z" fill="black" fill-opacity="0.15"/>
<path d="M57.213 128.023C57.6891 127.11 57.7077 125.637 57.7264 125.568C57.8094 125.265 58.5158 125.161 58.7072 125.876C59.085 127.286 60.4776 125.585 60.298 126.095C59.766 127.612 59.6271 130.19 59.0748 130.24C57.9008 130.347 53.3963 131.081 53.4606 130.458C53.4996 130.083 56.8945 128.631 57.2113 128.023H57.213Z" fill="#073C4B"/>
<path d="M78.0425 129.368C77.4055 129.069 77.3377 128.49 77.0768 127.936C77.0599 127.899 76.9735 127.111 76.9735 127.048C76.9769 126.777 75.9401 122.433 75.564 122.988C74.8203 124.083 74.2409 125.958 74.2714 126.423C74.3612 127.807 73.7869 129.991 74.2951 130.155C75.3777 130.504 80.4616 131.008 80.5717 130.472C80.6378 130.15 79.1453 129.886 78.0425 129.367V129.368Z" fill="#073C4B"/>
<path d="M62.9111 74.8392C63.0517 74.5856 79.3522 71.4493 80.0756 72.0435C80.0756 72.0435 79.5928 125.498 78.5984 126.22C77.6039 126.942 73.9261 127.303 73.4026 126.174C71.9863 123.116 71.6424 89.8293 71.8931 84.7078C71.595 86.3151 62.4926 125.193 61.7117 126.174C60.9307 127.155 57.8644 126.828 56.9547 126.174C56.421 125.791 59.3653 107.562 60.4801 94.12C61.4084 82.9353 62.1775 76.1571 62.9111 74.841V74.8392Z" fill="#79B9D3"/>
<path d="M80.0745 72.0435C79.8153 71.8307 77.5621 72.0963 74.7686 72.5356C71.1314 74.0101 66.7403 75.5357 63.2759 75.1917C63.2759 75.1917 63.9383 76.4006 67.9956 76.845C71.3177 77.2094 77.3555 76.7684 80.0355 76.0362C80.0626 73.5402 80.0762 72.0435 80.0762 72.0435H80.0745Z" fill="#2E7992"/>
<path d="M62.5802 75.4408C62.5768 71.8754 62.5819 69.7165 61.8992 66.9973C59.7324 58.3683 57.6351 56.7525 58.8092 54.0504C59.8764 51.5952 63.3256 49.1434 66.6426 48.8216C70.2409 48.4725 73.5088 49.3579 74.9437 51.3108C77.5949 54.9188 80.1208 64.1607 80.6053 73.7398C80.6951 75.5191 77.9388 75.4714 75.9229 75.8392C70.6271 76.8012 62.5802 76.0145 62.5785 75.4425L62.5802 75.4408Z" fill="#F6BFBB"/>
<path d="M64.7906 48.7612C64.7448 49.2669 67.6722 51.6404 68.2753 50.8112C68.4515 50.5694 68.072 49.5478 67.8298 48.9076L67.3724 47.1097L67.1623 45.9757L66.9709 44.9422L65.4529 44.4297C65.4529 44.4297 64.8702 47.8758 64.7906 48.7629V48.7612Z" fill="#9388CD"/>
<path d="M65.6724 45.5713C65.6724 45.5713 65.8214 46.5464 66.5126 46.8545C66.8226 46.9923 67.1225 47.0723 67.3715 47.1098L67.1615 45.9763C66.5838 45.8691 65.8147 45.7074 65.6724 45.5713Z" fill="#5745A0"/>
<path d="M65.8048 43.049L65.593 45.1535C65.5778 45.8515 66.2486 46.2772 66.8331 46.3538C67.3837 46.4253 67.8614 46.4577 68.4425 46.0814C68.7965 45.8515 69.0727 45.4037 68.9117 44.6682C68.7034 43.7147 68.2426 42.8957 67.9715 42.4701C67.3532 41.503 66.0437 41.6886 65.8065 43.0507L65.8048 43.049Z" fill="#9388CD"/>
<path d="M67.1323 43.9513C67.1323 43.9513 67.7202 43.999 68.469 43.8135C68.469 43.8135 68.6316 44.2543 68.3741 44.4483C68.1166 44.6423 67.4847 44.4568 67.1323 43.9513Z" fill="white"/>
<path d="M67.8239 43.5341C67.8849 43.5256 67.9221 43.4848 67.9204 43.4236C67.9153 43.2876 68.1253 43.2909 68.1321 43.427C68.1389 43.5749 68.0237 43.7195 67.8764 43.7399C67.8205 43.7484 67.7629 43.7229 67.7477 43.6633C67.7342 43.6123 67.7663 43.5426 67.8239 43.5341Z" fill="#5745A0"/>
<path d="M67.068 42.931C67.1052 42.9106 67.1662 42.9208 67.1831 42.9633C67.2051 43.0161 67.217 43.0671 67.2102 43.1249C67.2051 43.1708 67.1729 43.2099 67.1238 43.2082C67.0815 43.2082 67.0358 43.1674 67.0409 43.1215C67.0443 43.096 67.0239 42.9548 67.068 42.931Z" fill="#155D72"/>
<path d="M68.2966 42.8932V42.9901C68.2932 43.1007 68.1222 43.0973 68.1255 42.9867V42.8898C68.1289 42.7793 68.2999 42.7827 68.2966 42.8932Z" fill="#155D72"/>
<path d="M65.4016 43.4541C65.3728 43.3554 65.5828 43.0065 65.8014 43.0899C65.8014 43.0899 65.8302 43.3146 65.8725 43.5324L65.5371 43.7741C65.4659 43.626 65.4134 43.4932 65.4033 43.4541H65.4016Z" fill="#4F4F4F"/>
<path d="M65.6815 43.8595C65.5764 43.7812 65.4867 43.6876 65.4003 43.5889C65.2376 43.4017 64.953 43.16 64.7938 43.5395C64.5634 44.0909 65.3477 45.0099 65.8763 44.6815C66.2676 44.4381 65.9457 44.0569 65.6815 43.8595Z" fill="#9388CD"/>
<path d="M65.8719 43.5322C65.8956 43.6497 65.9227 43.7654 65.9515 43.8403C66.0345 44.053 66.1683 44.1874 65.9515 44.2436C65.8176 44.2776 65.6262 43.9271 65.5127 43.6922L65.8719 43.5322Z" fill="#4F4F4F"/>
<path d="M71.89 84.9399C71.9798 84.9399 72.0662 84.8872 72.1034 84.797C72.9708 82.7497 74.1313 82.057 74.1414 82.0502C74.2532 81.9855 74.2905 81.8426 74.2261 81.732C74.1617 81.6196 74.0194 81.5822 73.9093 81.6469C73.8568 81.6775 72.6032 82.4263 71.6765 84.6149C71.6257 84.734 71.6816 84.8702 71.8002 84.9212C71.8307 84.9331 71.8612 84.9399 71.8917 84.9399H71.89Z" fill="#2E7992"/>
<path d="M67.9292 50.4828C67.9292 50.4828 65.3694 49.1469 64.8392 48.3096C64.8392 48.3096 64.0565 49.0958 64.0074 49.2864C63.9583 49.477 67.1432 51.7728 67.1432 51.7728L68.202 50.9832L69.2133 51.2418C69.2133 51.2418 68.9863 49.8651 68.4188 49.2286C67.8513 48.5921 67.7259 48.507 67.7259 48.507C67.7259 48.507 67.853 49.3256 67.8733 49.5945C67.8902 49.8123 67.9275 50.4828 67.9275 50.4828H67.9292Z" fill="#F29892"/>
<path d="M66.563 42.7732C66.563 42.7732 66.9916 42.501 67.0661 42.501C67.1407 42.501 67.161 42.5996 67.1322 42.6133C66.978 42.683 66.6884 42.8446 66.6511 42.8633C66.6138 42.8821 66.5511 42.8157 66.563 42.7732Z" fill="#4F4F4F"/>
<path d="M68.1611 42.4651C68.1611 42.4651 67.7648 42.3546 67.7039 42.3784C67.6429 42.4022 67.6683 42.4787 67.6683 42.4787C67.6683 42.4787 68.0679 42.5688 68.1018 42.5739C68.1357 42.579 68.178 42.4991 68.1628 42.4634L68.1611 42.4651Z" fill="#4F4F4F"/>
<path d="M57.6716 123.847H57.6683C57.6191 123.845 57.5819 123.804 57.5836 123.755C57.6073 123.055 58.168 119.514 58.7609 115.766C59.4182 111.608 60.0993 107.309 60.1772 106.11C60.3212 103.9 61.3665 92.5318 61.9289 89.7088C62.4693 86.9897 62.9657 78.2807 62.9707 78.1938C62.9741 78.1445 63.0165 78.1087 63.0639 78.1104C63.1131 78.1138 63.1486 78.1547 63.1469 78.2041C63.1419 78.2926 62.6455 87.0136 62.1034 89.7446C61.5426 92.5608 60.4991 103.916 60.3551 106.122C60.2772 107.33 59.5961 111.634 58.9371 115.795C58.3442 119.538 57.7851 123.074 57.7614 123.762C57.7614 123.809 57.7208 123.847 57.6733 123.847H57.6716Z" fill="#2E7992"/>
<path d="M73.829 125.651C73.7833 125.651 73.7443 125.615 73.7409 125.567C73.7375 125.508 73.3869 119.639 72.921 117.764C72.6736 116.767 72.7804 114.063 72.8854 111.449C72.982 109.035 73.0734 106.753 72.8735 106.091C72.6296 105.279 72.7363 101.226 72.8295 97.6526C72.8989 94.9794 72.965 92.4561 72.8701 91.7938C72.6499 90.2529 72.5432 85.2675 72.5415 85.2182C72.5415 85.1688 72.5788 85.1296 72.6279 85.1279H72.6296C72.677 85.1279 72.716 85.1654 72.7177 85.2148C72.7177 85.2641 72.8261 90.2393 73.0446 91.77C73.1412 92.4459 73.0785 94.862 73.0057 97.6594C72.9125 101.221 72.8075 105.257 73.0429 106.042C73.2496 106.733 73.1581 109.028 73.0616 111.458C72.9582 114.059 72.8498 116.749 73.0921 117.723C73.5613 119.613 73.912 125.499 73.9171 125.559C73.9205 125.608 73.8832 125.649 73.8341 125.653H73.829V125.651Z" fill="#2E7992"/>
<path d="M69.1316 45.7C68.9588 45.4839 66.1906 45.5451 66.4397 45.8447C66.6887 46.1459 67.4697 46.1272 67.4697 46.1272C67.4697 46.1272 67.8508 47.5176 68.0169 47.7065C68.1829 47.8954 68.5285 47.9141 68.7741 48.1047C69.0214 48.2936 69.1112 48.4042 69.7126 48.2034C70.314 48.0026 69.3027 45.9178 69.1299 45.7017L69.1316 45.7Z" fill="#9388CD"/>
<path d="M55.5159 68.6026C54.6469 68.9635 53.4847 69.2087 51.9922 69.0691C49.795 68.8631 48.5718 68.1173 47.9179 67.4941C47.8806 69.0725 48.106 70.4397 48.9327 71.9312C52.4937 78.3587 59.5309 83.4582 62.399 83.8685C62.931 83.9451 64.027 82.1403 64.027 82.1403C64.027 82.1403 57.0338 71.9381 55.5176 68.6026H55.5159Z" fill="#9388CD"/>
<path d="M55.9718 69.1096C55.9956 69.0534 55.9634 66.4654 57.2712 64.5874C59.9479 60.7428 66.0432 55.7796 64.7896 53.0826C64.1458 51.6983 63.0836 49.662 60.8796 51.3697C59.2753 52.6127 47.8267 60.9931 47.6606 68.071C48.3146 68.6925 49.5055 69.3003 51.7027 69.5063C53.1952 69.646 55.6229 69.9524 55.9718 69.1113V69.1096Z" fill="#F6BFBB"/>
<path d="M63.4049 81.15C63.4049 81.15 65.0024 80.348 65.4531 80.2867C65.9054 80.2254 68.516 80.9848 68.4804 81.15C68.3906 81.5875 66.4763 81.15 66.4763 81.15C66.4763 81.15 68.2517 81.8038 68.2416 82.0643C68.2314 82.3265 68.0891 82.3759 68.0891 82.3759C68.0891 82.3759 68.1941 82.5955 67.984 82.7998C67.8519 82.9275 66.2815 82.7692 66.2815 82.7692C66.2815 82.7692 66.9439 82.9207 67.3047 83.1472C67.6656 83.3736 66.4153 83.2221 65.858 83.2374C65.3006 83.2527 64.3062 83.8606 63.2524 83.9202C62.1987 83.9798 61.7074 83.7005 61.5499 83.0109C61.4787 82.6994 62.6798 81.4973 63.4032 81.1483L63.4049 81.15Z" fill="#9388CD"/>
<path d="M60.1295 61.2914C60.0854 61.2914 60.0414 61.2744 60.0075 61.2403C59.9414 61.1722 59.9431 61.0649 60.0109 60.9985C65.1253 55.9893 64.2224 53.9836 64.2122 53.9632C64.1699 53.8781 64.2055 53.7759 64.2885 53.735C64.3715 53.6942 64.4748 53.7282 64.5155 53.8117C64.5595 53.9019 65.537 56.0626 60.2464 61.242C60.2142 61.2744 60.1701 61.2897 60.1278 61.2897L60.1295 61.2914Z" fill="#F29892"/>
<path d="M79.5531 64.8636C79.4718 64.8636 79.4006 64.8057 79.3871 64.7222C79.2736 64.0786 78.6383 61.1858 78.6315 61.1569C78.6112 61.065 78.6688 60.9747 78.7603 60.9543C78.8518 60.9339 78.9415 60.9917 78.9619 61.0837C78.9873 61.2029 79.6039 64.0139 79.7208 64.6627C79.7378 64.7546 79.6751 64.8431 79.5836 64.8602C79.5734 64.8619 79.5633 64.8636 79.5531 64.8636Z" fill="#F29892"/>
<path d="M69.5416 47.4094C69.5416 47.4094 69.9821 47.3191 71.4898 48.3118C72.9976 49.3044 83.2739 54.901 83.3044 58.8869C83.3315 62.2207 79.6689 62.2054 77.9359 61.1208C76.2028 60.0362 65.7841 47.7516 69.5416 47.4111V47.4094Z" fill="#9388CD"/>
<path d="M103.089 75.3855V81.6976H95.1506V130.818H89.3652V72.983C89.3652 72.2126 89.67 71.4737 90.2125 70.9289C90.755 70.3842 91.4907 70.0781 92.2579 70.0781C93.0251 70.0781 93.7608 70.3842 94.3033 70.9289C94.8458 71.4737 95.1506 72.2126 95.1506 72.983V75.3855H103.089Z" fill="#F6BFBB"/>
<path d="M127.1 75.3857V81.6978H103.98V75.3857H127.1Z" fill="#F6BFBB"/>
<path d="M136.736 78.5302C136.737 78.9437 136.658 79.3535 136.501 79.7359C136.344 80.1182 136.113 80.4656 135.822 80.758C135.531 81.0504 135.185 81.282 134.804 81.4395C134.424 81.5969 134.016 81.6771 133.604 81.6753H128.014V75.3633H133.604C134.434 75.3758 135.227 75.7142 135.812 76.306C136.397 76.8978 136.729 77.6962 136.736 78.5302Z" fill="#F6BFBB"/>
<path d="M131.95 83.1173H128.013V83.8599C128.154 83.9592 128.26 84.1007 128.316 84.2641C128.371 84.4275 128.374 84.6043 128.323 84.7693C128.272 84.9343 128.171 85.0789 128.033 85.1824C127.895 85.2858 127.729 85.3428 127.557 85.3451C127.344 85.3417 127.142 85.2555 126.991 85.1047C126.841 84.9538 126.755 84.7502 126.752 84.537C126.75 84.4041 126.781 84.2728 126.842 84.1547C126.902 84.0366 126.991 83.9353 127.1 83.8599V83.1173H103.98V83.8599C104.121 83.9592 104.227 84.1007 104.283 84.2641C104.338 84.4275 104.341 84.6043 104.29 84.7693C104.239 84.9343 104.138 85.0789 104 85.1824C103.862 85.2858 103.696 85.3428 103.524 85.3451C103.311 85.3417 103.109 85.2555 102.958 85.1047C102.808 84.9538 102.722 84.7502 102.719 84.537C102.717 84.4041 102.748 84.2728 102.808 84.1547C102.869 84.0366 102.958 83.9353 103.067 83.8599V83.1173H99.1303C99.0149 83.1173 98.9043 83.1633 98.8227 83.2452C98.7411 83.3272 98.6953 83.4383 98.6953 83.5541V107.841C98.6953 107.957 98.7411 108.068 98.8227 108.15C98.9043 108.232 99.0149 108.278 99.1303 108.278H131.928C132.044 108.278 132.154 108.232 132.236 108.15C132.317 108.068 132.363 107.957 132.363 107.841V83.5541C132.368 83.4975 132.36 83.4406 132.341 83.3872C132.322 83.3337 132.292 83.2848 132.253 83.2436C132.214 83.2025 132.167 83.17 132.115 83.1482C132.063 83.1265 132.007 83.1159 131.95 83.1173ZM105.916 98.7773C106.221 99.1486 106.612 99.6291 107.112 100.197C107.14 100.222 107.161 100.252 107.176 100.286C107.191 100.32 107.199 100.357 107.199 100.394C107.195 100.457 107.174 100.518 107.14 100.571C107.106 100.625 107.059 100.669 107.004 100.699C106.861 100.791 106.694 100.837 106.525 100.83C106.215 100.812 105.919 100.698 105.677 100.503C105.395 100.283 105.152 100.018 104.959 99.7165C104.742 99.3889 104.502 98.9739 104.22 98.4497C104.002 98.0566 103.872 97.8163 103.828 97.7508C103.329 97.9128 102.809 98.0011 102.284 98.0129C102.288 98.4075 102.317 98.8014 102.371 99.1923C102.414 99.6947 102.436 100.066 102.436 100.306C102.436 100.385 102.416 100.462 102.378 100.531C102.34 100.6 102.285 100.658 102.219 100.699C102.074 100.805 101.898 100.859 101.718 100.852C101.619 100.857 101.521 100.836 101.433 100.79C101.345 100.743 101.271 100.675 101.218 100.59C101.097 100.32 101.017 100.033 100.979 99.7383C100.957 99.4107 100.935 99.0176 100.935 98.5589C100.935 98.0117 100.964 97.4649 101.022 96.9208C101.066 96.2438 101.088 95.7414 101.088 95.4138C101.088 95.1517 101.066 94.8023 101.022 94.3654C101.022 94.2999 101.001 94.1689 100.979 93.9723C100.962 93.8054 100.955 93.6377 100.957 93.47C100.959 93.3547 101.006 93.2448 101.088 93.1642C101.171 93.0842 101.267 93.0179 101.37 92.9676C102.032 92.8562 102.701 92.7978 103.371 92.7929C104.481 92.7929 105.394 92.9895 106.112 93.4263C106.453 93.6079 106.736 93.8827 106.928 94.2188C107.121 94.555 107.215 94.939 107.199 95.3264C107.196 95.5908 107.137 95.8513 107.025 96.0909C106.924 96.3221 106.767 96.5247 106.569 96.6806C106.113 97.0506 105.588 97.3254 105.024 97.4887C105.329 97.9474 105.633 98.3842 105.916 98.7773ZM114.159 100.044C114.072 100.136 113.969 100.21 113.855 100.263C113.438 100.452 112.999 100.592 112.55 100.677C111.991 100.786 111.422 100.838 110.853 100.83C110.092 100.83 109.548 100.699 109.2 100.437C108.882 100.218 108.651 99.8932 108.548 99.5199C108.47 99.0508 108.434 98.5758 108.439 98.1003C108.434 97.4876 108.463 96.8751 108.526 96.2656C108.57 95.6541 108.657 94.8896 108.787 93.9286C108.8 93.757 108.849 93.5901 108.931 93.4394C109.014 93.2886 109.128 93.1575 109.265 93.055C109.515 92.8645 109.822 92.7644 110.135 92.771C110.396 92.771 110.831 92.771 111.419 92.7492L112.528 92.7274C112.855 92.7245 113.181 92.7391 113.507 92.771C113.703 92.7999 113.894 92.8588 114.072 92.9458C114.131 92.9719 114.181 93.0148 114.216 93.0691C114.251 93.1235 114.269 93.1869 114.268 93.2515C114.26 93.4324 114.199 93.607 114.094 93.7539C114.036 93.8321 113.961 93.8949 113.874 93.9368C113.786 93.9787 113.69 93.9984 113.594 93.9941C113.333 93.9941 112.963 93.9723 112.463 93.9505C111.962 93.9286 111.614 93.9068 111.353 93.9068C111.143 93.9105 110.932 93.925 110.723 93.9505C110.553 93.9549 110.384 93.9843 110.222 94.0378C110.176 94.0538 110.135 94.0828 110.104 94.1215C110.073 94.1602 110.054 94.207 110.048 94.2562C109.955 94.9005 109.897 95.5494 109.874 96.2001C110.062 96.2247 110.251 96.2392 110.44 96.2438C110.679 96.2438 110.94 96.2219 111.201 96.2001C111.462 96.1782 111.636 96.1564 111.723 96.1564C112.18 96.1127 112.55 96.0909 112.876 96.0909C113.022 96.0812 113.167 96.1195 113.289 96.2001C113.339 96.2277 113.38 96.2691 113.407 96.3195C113.434 96.3699 113.446 96.427 113.441 96.484C113.448 96.5635 113.438 96.6435 113.412 96.7189C113.386 96.7942 113.344 96.863 113.289 96.9208C113.149 97.048 112.975 97.1315 112.789 97.1611C112.423 97.2341 112.052 97.2779 111.68 97.2921C111.245 97.314 110.831 97.3358 110.418 97.3358C110.266 97.3358 110.07 97.3358 109.831 97.314C109.809 97.8382 109.787 98.3187 109.787 98.7555C109.787 99.367 110.179 99.651 110.984 99.651C111.334 99.6612 111.684 99.6319 112.028 99.5636C112.289 99.4981 112.637 99.4107 112.985 99.3015C113.24 99.1909 113.512 99.1245 113.789 99.1049C113.86 99.1008 113.93 99.1172 113.992 99.152C114.054 99.1868 114.104 99.2387 114.137 99.3015C114.225 99.4132 114.271 99.5523 114.268 99.6947C114.265 99.8191 114.228 99.9404 114.159 100.044ZM122.25 97.9474C122.293 98.69 122.293 99.236 122.293 99.5854C122.3 99.7968 122.292 100.008 122.272 100.219C122.249 100.378 122.172 100.525 122.054 100.634C121.86 100.779 121.621 100.849 121.38 100.83C121.237 100.838 121.095 100.807 120.967 100.743C120.874 100.694 120.793 100.628 120.727 100.546C120.336 100.066 119.749 99.236 118.987 98.0784C118.139 96.7898 117.443 95.7851 116.9 95.108C116.975 95.8554 117.012 96.6064 117.008 97.3577C117.008 97.7508 117.008 98.2531 116.987 98.8865C116.965 99.5199 116.965 99.9131 116.943 100.11C116.922 100.319 116.839 100.517 116.704 100.677C116.637 100.747 116.555 100.801 116.465 100.835C116.374 100.869 116.278 100.882 116.182 100.874C116.106 100.883 116.029 100.874 115.957 100.847C115.885 100.821 115.821 100.778 115.769 100.721C115.668 100.549 115.615 100.353 115.616 100.153C115.616 99.8039 115.616 99.2797 115.682 98.5808C115.682 98.4716 115.703 98.275 115.725 98.0129C115.747 97.7508 115.747 97.5105 115.747 97.2921C115.747 96.7024 115.725 96.0254 115.66 95.2828C115.616 94.4528 115.573 93.8413 115.573 93.4263C115.567 93.3376 115.584 93.2489 115.622 93.1686C115.66 93.0883 115.718 93.0191 115.79 92.9676C115.941 92.8552 116.124 92.794 116.312 92.7929C116.494 92.7949 116.673 92.8397 116.834 92.9239C117.552 93.8413 118.552 95.2172 119.792 97.03L120.988 98.8647V98.2968C120.988 97.86 120.988 97.4013 120.967 96.899C120.945 96.3967 120.945 96.069 120.923 95.8725C120.88 95.0425 120.858 94.3218 120.858 93.6884C120.856 93.4651 120.916 93.2456 121.032 93.055C121.086 92.9652 121.163 92.8915 121.254 92.8416C121.346 92.7917 121.45 92.7673 121.554 92.771C121.734 92.771 121.911 92.8082 122.076 92.8802C122.145 92.9132 122.203 92.9663 122.241 93.0324C122.28 93.0986 122.298 93.1749 122.293 93.2515C122.293 93.601 122.272 94.0815 122.25 94.7149C122.228 95.3483 122.206 95.7851 122.206 96.069C122.185 96.5495 122.206 97.1611 122.25 97.9474ZM129.993 94.0378C129.94 94.1014 129.873 94.1521 129.798 94.1861C129.722 94.2202 129.64 94.2367 129.558 94.2344C129.288 94.2284 129.02 94.2066 128.753 94.1689C128.481 94.1107 128.204 94.0814 127.926 94.0815C127.752 94.0759 127.578 94.0832 127.404 94.1033C127.383 94.3873 127.361 95.0644 127.361 96.1127C127.361 97.3795 127.404 98.6681 127.47 99.9567L127.491 100.328C127.491 100.677 127.296 100.852 126.904 100.852C126.6 100.852 126.382 100.787 126.273 100.634C126.146 100.432 126.085 100.195 126.1 99.9567C126.1 99.3452 126.078 98.6026 126.056 97.7071C126.034 96.9645 126.013 96.4403 126.013 96.1127C126.013 95.8943 126.034 95.2609 126.1 94.1689L124.621 94.1907C124.282 94.2111 123.942 94.1666 123.62 94.0597C123.521 93.9941 123.442 93.9022 123.392 93.7942C123.342 93.6862 123.323 93.5664 123.337 93.4481C123.337 93.0768 123.598 92.9021 124.142 92.9021C124.36 92.9021 124.795 92.9021 125.447 92.9239C126.165 92.9458 126.687 92.9676 127.056 92.9676C127.339 92.9676 127.709 92.9458 128.122 92.9239C128.405 92.9021 128.601 92.9021 128.666 92.9021C129.071 92.912 129.47 93.001 129.84 93.1642C129.924 93.1967 129.999 93.2492 130.058 93.3171C130.116 93.4003 130.146 93.4996 130.145 93.601C130.15 93.6803 130.139 93.7598 130.113 93.8348C130.086 93.9098 130.046 93.9788 129.993 94.0378Z" fill="#EF5E4E"/>
<path d="M105.895 95.2386C105.896 95.366 105.867 95.4917 105.81 95.6056C105.754 95.7195 105.671 95.8183 105.569 95.8939C105.363 96.073 105.128 96.2135 104.873 96.3089C104.634 96.3962 104.307 96.5054 103.938 96.6146C103.742 96.6583 103.437 96.702 103.068 96.7457C103.024 96.7457 102.915 96.7675 102.741 96.7894C102.587 96.7897 102.433 96.8117 102.285 96.8549C102.285 96.4399 102.306 96.0686 102.328 95.7191C102.35 95.3697 102.372 94.9984 102.372 94.6271L102.35 93.9719C102.691 93.8853 103.042 93.8413 103.394 93.8408C104.177 93.8408 104.808 93.9719 105.221 94.234C105.678 94.4961 105.895 94.8455 105.895 95.2386Z" fill="#EF5E4E"/>
<path d="M103.98 75.451V84.5368C103.979 84.6583 103.931 84.7746 103.846 84.8605C103.76 84.9464 103.644 84.9949 103.523 84.9955C103.463 84.997 103.403 84.9862 103.347 84.9636C103.291 84.9411 103.24 84.9074 103.197 84.8645C103.154 84.8216 103.121 84.7704 103.098 84.7141C103.076 84.6578 103.065 84.5975 103.067 84.5368V75.3854C103.081 75.2749 103.136 75.1736 103.22 75.101C103.304 75.0285 103.412 74.9897 103.523 74.9923C103.632 74.9967 103.737 75.0378 103.82 75.1092C103.903 75.1805 103.959 75.2779 103.98 75.3854V75.451Z" fill="#CCCCCC"/>
<path d="M128.013 75.451V84.6024C128.013 84.6626 128.001 84.7222 127.978 84.7779C127.955 84.8335 127.922 84.8841 127.879 84.9267C127.837 84.9693 127.787 85.0031 127.731 85.0261C127.676 85.0492 127.616 85.061 127.556 85.061C127.496 85.061 127.437 85.0492 127.382 85.0261C127.326 85.0031 127.276 84.9693 127.233 84.9267C127.191 84.8841 127.157 84.8335 127.134 84.7779C127.111 84.7222 127.1 84.6626 127.1 84.6024V75.3854C127.114 75.2749 127.169 75.1736 127.253 75.101C127.337 75.0285 127.445 74.9897 127.556 74.9923C127.666 74.9934 127.772 75.0334 127.856 75.1053C127.94 75.1772 127.995 75.2764 128.013 75.3854V75.451Z" fill="#CCCCCC"/>
<rect x="99.6885" y="87.8789" width="32.1253" height="17.6609" fill="#EF5E4E"/>
<path d="M104.336 92.4248H106.837C107.977 92.4248 108.803 92.5885 109.316 92.916C109.832 93.2398 110.091 93.7567 110.091 94.4669C110.091 94.9488 109.977 95.3444 109.75 95.6534C109.526 95.9625 109.228 96.1483 108.854 96.2109V96.2661C109.363 96.3801 109.73 96.5935 109.953 96.9063C110.18 97.219 110.294 97.6348 110.294 98.1536C110.294 98.8895 110.028 99.4634 109.497 99.8755C108.969 100.288 108.251 100.494 107.343 100.494H104.336V92.4248ZM106.04 95.6203H107.029C107.491 95.6203 107.824 95.5486 108.03 95.4051C108.239 95.2616 108.343 95.0243 108.343 94.6931C108.343 94.3841 108.229 94.1633 108.002 94.0308C107.779 93.8947 107.423 93.8266 106.936 93.8266H106.04V95.6203ZM106.04 96.978V99.0808H107.15C107.619 99.0808 107.966 98.9906 108.189 98.8103C108.413 98.6301 108.524 98.3541 108.524 97.9825C108.524 97.3128 108.048 96.978 107.095 96.978H106.04Z" fill="white"/>
<path d="M118.439 92.4248V97.6458C118.439 98.2419 118.305 98.7644 118.038 99.2132C117.774 99.6621 117.391 100.006 116.889 100.245C116.387 100.484 115.794 100.604 115.108 100.604C114.075 100.604 113.273 100.339 112.701 99.8093C112.13 99.2758 111.844 98.5473 111.844 97.6237V92.4248H113.542V97.3644C113.542 97.9862 113.667 98.4424 113.916 98.7331C114.165 99.0237 114.577 99.1691 115.152 99.1691C115.709 99.1691 116.112 99.0237 116.361 98.7331C116.614 98.4387 116.741 97.9788 116.741 97.3533V92.4248H118.439Z" fill="white"/>
<path d="M122.907 95.7473L124.583 92.4248H126.419L123.753 97.3533V100.494H122.061V97.4085L119.395 92.4248H121.242L122.907 95.7473Z" fill="white"/>
<path d="M40.1639 131.049C39.831 131.063 39.4813 130.958 39.1788 130.752C37.9946 129.943 35.1692 127.645 35.8035 124.471C36.1135 122.917 36.0828 122.294 35.8889 121.425C35.3872 119.178 35.1565 117.42 36.7627 117.708C38.369 117.995 39.4143 121.274 39.7412 121.773C40.3189 122.655 41.5398 122.538 42.131 124.447C42.7219 126.357 42.261 130.962 42.261 130.962L40.1639 131.049Z" fill="#2E7992"/>
<path d="M41.7818 127.089C41.7586 127.069 41.7234 127.067 41.7032 127.084L40.1265 128.389C39.9932 127.72 39.8068 126.925 39.5503 126.076L40.3845 123.674C40.3927 123.65 40.3751 123.622 40.3456 123.611C40.316 123.601 40.2853 123.611 40.277 123.635L39.4934 125.891C39.4608 125.787 39.4271 125.682 39.3927 125.576C39.1167 124.734 38.7543 123.71 38.3923 122.713L38.6382 121.534C38.6435 121.51 38.6229 121.483 38.5926 121.475C38.5622 121.467 38.5334 121.48 38.5282 121.505L38.3181 122.511C37.6082 120.564 36.9216 118.78 36.9111 118.753C36.9014 118.727 36.8695 118.71 36.8403 118.715C36.8111 118.719 36.7954 118.743 36.8051 118.769C36.816 118.797 37.5236 120.636 38.2447 122.616L36.7595 121.912C36.731 121.898 36.6984 121.905 36.6864 121.927C36.6745 121.95 36.6879 121.978 36.7164 121.992L38.2885 122.738C38.6491 123.73 39.0097 124.75 39.2845 125.588C39.3287 125.722 39.3706 125.855 39.4114 125.988L37.1777 125.094C37.1485 125.082 37.117 125.091 37.1073 125.114C37.0975 125.137 37.1136 125.165 37.1429 125.177L39.4455 126.099C39.7016 126.948 39.8873 127.742 40.0194 128.409L37.2934 127.256C37.2642 127.244 37.2323 127.252 37.2222 127.275C37.2117 127.298 37.2271 127.326 37.2559 127.339L40.0404 128.517C40.2531 129.612 40.3186 130.338 40.3197 130.351C40.322 130.377 40.3486 130.399 40.3793 130.401C40.3815 130.401 40.3834 130.401 40.3856 130.401C40.4133 130.4 40.4332 130.382 40.4309 130.358C40.4298 130.345 40.3639 129.614 40.1497 128.511L41.7867 127.156C41.8069 127.139 41.8043 127.11 41.7811 127.09L41.7818 127.089Z" fill="#CEE7F4"/>
<path d="M33.9109 75.3845V81.6966H41.8494V130.817H47.6348V72.982C47.6313 72.2127 47.3255 71.4758 46.7837 70.9318C46.242 70.3877 45.5082 70.0806 44.7421 70.0771C43.9753 70.0783 43.2402 70.3847 42.6979 70.9292C42.1557 71.4738 41.8506 72.2119 41.8494 72.982V75.3845H33.9109Z" fill="#F6BFBB"/>
<path d="M9.90023 75.3848V81.6968H32.998V75.3848H9.90023Z" fill="#F6BFBB"/>
<path d="M0.265809 78.5293C0.264083 78.9428 0.343914 79.3525 0.500696 79.7349C0.657477 80.1173 0.888106 80.4647 1.17928 80.757C1.47044 81.0494 1.81639 81.281 2.19715 81.4385C2.57791 81.5959 2.98595 81.6761 3.39772 81.6744H8.9873V75.3623H3.39772C2.56598 75.3709 1.77105 75.708 1.18493 76.3007C0.598812 76.8934 0.268623 77.694 0.265809 78.5293Z" fill="#F6BFBB"/>
<path d="M37.8483 83.1162H33.9116V83.8588C34.0523 83.9581 34.1581 84.0996 34.2137 84.263C34.2694 84.4264 34.272 84.6033 34.2213 84.7682C34.1705 84.9332 34.069 85.0778 33.9313 85.1813C33.7936 85.2847 33.6268 85.3417 33.4549 85.344C33.2425 85.3406 33.0398 85.2544 32.8896 85.1036C32.7394 84.9527 32.6535 84.7492 32.6502 84.5359C32.6483 84.403 32.679 84.2717 32.7397 84.1536C32.8004 84.0355 32.8892 83.9342 32.9982 83.8588V83.1162H9.90033V83.8588C10.041 83.9581 10.1468 84.0996 10.2024 84.263C10.2581 84.4264 10.2607 84.6033 10.21 84.7682C10.1592 84.9332 10.0577 85.0778 9.92002 85.1813C9.78233 85.2847 9.61554 85.3417 9.44359 85.344C9.23121 85.3406 9.02848 85.2544 8.87829 85.1036C8.72809 84.9527 8.64223 84.7492 8.63887 84.5359C8.63696 84.403 8.66771 84.2717 8.72841 84.1536C8.78911 84.0355 8.87788 83.9342 8.98686 83.8588V83.1162H5.05022C4.93486 83.1162 4.82421 83.1622 4.74264 83.2442C4.66106 83.3261 4.61523 83.4372 4.61523 83.553V107.84C4.61523 107.956 4.66106 108.067 4.74264 108.149C4.82421 108.231 4.93486 108.277 5.05022 108.277H37.8483C37.9636 108.277 38.0743 108.231 38.1558 108.149C38.2374 108.067 38.2832 107.956 38.2832 107.84V83.553C38.2832 83.4372 38.2374 83.3261 38.1558 83.2442C38.0743 83.1622 37.9636 83.1162 37.8483 83.1162ZM14.4242 102.031C14.1817 102.478 13.8203 102.848 13.3802 103.101C13.0114 103.328 12.5977 103.471 12.1681 103.52C11.7384 103.569 11.3033 103.524 10.893 103.386C10.4828 103.249 10.1074 103.023 9.79315 102.725C9.47891 102.427 9.23341 102.063 9.07385 101.659C8.81543 101.028 8.67533 100.354 8.66062 99.6717L10.1613 99.2349C10.1807 99.6846 10.2463 100.131 10.3571 100.567C10.4458 100.96 10.6245 101.326 10.8791 101.637C11.0085 101.77 11.1646 101.874 11.3371 101.942C11.5096 102.01 11.6945 102.04 11.8795 102.031C12.0647 102.042 12.2501 102.012 12.4229 101.945C12.5956 101.877 12.7516 101.772 12.88 101.637C13.136 101.309 13.2602 100.896 13.228 100.48C13.2498 99.98 13.121 99.4852 12.8582 99.0602C12.5826 98.6601 12.2614 98.2936 11.9013 97.9681L9.85683 96.0243C9.4831 95.6788 9.18019 95.2633 8.96511 94.8012C8.75988 94.2728 8.66369 93.7081 8.68237 93.1412C8.68237 92.1802 8.94336 91.4376 9.44359 90.9135C9.72036 90.6471 10.0482 90.4401 10.4071 90.3049C10.766 90.1697 11.1486 90.1093 11.5315 90.1272C11.9624 90.1137 12.3915 90.188 12.793 90.3456C13.1471 90.4625 13.4628 90.6739 13.7065 90.9571C13.9663 91.2744 14.1654 91.6373 14.2937 92.0274C14.4519 92.509 14.554 93.0074 14.5982 93.5125L13.1627 93.9275C13.1431 93.5296 13.0849 93.1346 12.9887 92.7481C12.9239 92.4139 12.7566 92.1084 12.5103 91.8745C12.3818 91.7554 12.231 91.6632 12.0667 91.6032C11.9024 91.5432 11.7279 91.5166 11.5533 91.525C11.3703 91.5172 11.1877 91.546 11.0159 91.6098C10.8442 91.6735 10.6867 91.7709 10.5528 91.8963C10.3136 92.1366 10.2048 92.486 10.2048 92.9665C10.1979 93.3024 10.257 93.6364 10.3788 93.9494C10.5325 94.2465 10.7388 94.513 10.9878 94.7356L13.054 96.6795C13.5286 97.1381 13.9384 97.6598 14.272 98.2302C14.635 98.8754 14.8155 99.608 14.7939 100.349C14.8027 100.931 14.6761 101.506 14.4242 102.031ZM20.6663 103.319L20.1008 100.021H17.6214L17.0341 103.319H15.4464L18.0346 90.2364H19.6658L22.2757 103.319H20.6663ZM28.3438 103.319H23.5154V90.2364H25.2119V102.009H28.322V103.319H28.3438ZM34.2596 103.319H29.4965V90.2364H34.2161V91.5905H31.193V95.9151H33.6506V97.2037H31.193V102.009H34.2596V103.319Z" fill="#EF5E4E"/>
<path d="M14.2505 98.2301C14.6136 98.8753 14.7941 99.6079 14.7725 100.349C14.7837 100.931 14.6569 101.507 14.4027 102.03C14.1603 102.477 13.7988 102.848 13.3588 103.101C12.99 103.327 12.5763 103.47 12.1466 103.52C11.717 103.569 11.2818 103.524 10.8716 103.386C10.4613 103.249 10.0859 103.023 9.77169 102.725C9.45745 102.427 9.21195 102.063 9.0524 101.659C8.79397 101.028 8.65388 100.354 8.63916 99.6716L10.1399 99.2348C10.1592 99.6845 10.2248 100.131 10.3356 100.567C10.4243 100.96 10.6031 101.326 10.8576 101.637C10.987 101.77 11.1432 101.874 11.3157 101.942C11.4882 102.01 11.6731 102.04 11.8581 102.03C12.0432 102.042 12.2286 102.012 12.4014 101.945C12.5742 101.877 12.7302 101.772 12.8585 101.637C13.1146 101.309 13.2387 100.896 13.2065 100.48C13.2284 99.9799 13.0995 99.4852 12.8368 99.0601C12.5611 98.66 12.2399 98.2935 11.8798 97.968L9.83538 96.0242C9.46164 95.6787 9.15873 95.2632 8.94365 94.8011C8.73843 94.2727 8.64224 93.708 8.66091 93.1412C8.66091 92.1802 8.9219 91.4376 9.42214 90.9134C9.69891 90.647 10.0267 90.44 10.3857 90.3048C10.7446 90.1696 11.1272 90.1092 11.5101 90.1271C11.9409 90.1136 12.37 90.1879 12.7715 90.3455C13.1256 90.4624 13.4414 90.6738 13.685 90.9571C13.9448 91.2744 14.1439 91.6372 14.2722 92.0273C14.4304 92.5089 14.5326 93.0073 14.5767 93.5125L13.1413 93.9274C13.1217 93.5296 13.0634 93.1345 12.9673 92.748C12.9025 92.4138 12.7352 92.1083 12.4888 91.8744C12.3603 91.7553 12.2096 91.6631 12.0453 91.6031C11.881 91.5431 11.7064 91.5165 11.5318 91.5249C11.3489 91.5171 11.1662 91.5459 10.9945 91.6097C10.8227 91.6734 10.6653 91.7708 10.5314 91.8962C10.2921 92.1365 10.1834 92.4859 10.1834 92.9664C10.1764 93.3024 10.2355 93.6364 10.3574 93.9493C10.511 94.2464 10.7174 94.5129 10.9663 94.7356L13.0325 96.6794C13.5122 97.1334 13.9226 97.6559 14.2505 98.2301Z" fill="#EF5E4E"/>
<path d="M19.6662 90.2363H18.035L15.4468 103.319H17.0345L17.6217 100.021H20.1011L20.6666 103.319H22.2761L19.6662 90.2363ZM17.8392 98.7107L18.8397 92.8136L19.8619 98.7107H17.8392Z" fill="#EF5E4E"/>
<path d="M25.2114 102.009H28.3215V103.319H23.4932V90.2363H25.2114V102.009Z" fill="#EF5E4E"/>
<path d="M31.1925 102.009H34.2657V103.319H29.4961V90.2363H34.2157V91.5905H31.1925V95.915H33.6502V97.2036H31.1925V102.009Z" fill="#EF5E4E"/>
<path d="M32.998 75.45V84.5359C32.9986 84.6573 33.0469 84.7737 33.1324 84.8595C33.2179 84.9454 33.3338 84.9939 33.4547 84.9945C33.5151 84.996 33.5752 84.9852 33.6313 84.9627C33.6874 84.9401 33.7383 84.9064 33.781 84.8635C33.8237 84.8206 33.8573 84.7695 33.8798 84.7131C33.9022 84.6568 33.913 84.5965 33.9115 84.5359V75.3845C33.897 75.2739 33.8424 75.1726 33.7581 75.1001C33.6738 75.0275 33.5658 74.9888 33.4547 74.9913C33.3447 74.9924 33.2386 75.0324 33.1551 75.1044C33.0715 75.1763 33.0159 75.2755 32.998 75.3845V75.45Z" fill="#CCCCCC"/>
<path d="M8.98692 75.45V84.6014C8.98692 84.6616 8.99873 84.7213 9.02168 84.7769C9.04464 84.8326 9.07828 84.8831 9.12069 84.9257C9.1631 84.9683 9.21345 85.0021 9.26887 85.0251C9.32428 85.0482 9.38367 85.06 9.44365 85.06C9.50363 85.06 9.56302 85.0482 9.61844 85.0251C9.67385 85.0021 9.7242 84.9683 9.76661 84.9257C9.80903 84.8831 9.84267 84.8326 9.86562 84.7769C9.88858 84.7213 9.90039 84.6616 9.90039 84.6014V75.3845C9.88594 75.2739 9.83131 75.1726 9.747 75.1001C9.6627 75.0275 9.55466 74.9888 9.44365 74.9913C9.33457 74.9957 9.23015 75.0369 9.14726 75.1082C9.06437 75.1795 9.00788 75.2769 8.98692 75.3845V75.45Z" fill="#CCCCCC"/>
<path d="M19.8833 98.7106H17.8389L18.8393 92.8135L19.8833 98.7106Z" fill="#EF5E4E"/>
<rect x="7.06494" y="87.8779" width="28.3734" height="17.6609" fill="#EF5E4E"/>
<path d="M9.37706 96.0067H9.92665C10.4652 96.0067 10.8628 95.9165 11.1193 95.7362C11.3757 95.5559 11.504 95.2726 11.504 94.8863C11.504 94.5036 11.3721 94.2314 11.1083 94.0695C10.8481 93.9076 10.4433 93.8266 9.89368 93.8266H9.37706V96.0067ZM9.37706 97.3975V100.494H7.67334V92.4248H10.0146C11.1064 92.4248 11.9143 92.6253 12.4383 93.0264C12.9622 93.4238 13.2242 94.029 13.2242 94.8421C13.2242 95.3168 13.0941 95.7399 12.834 96.1115C12.5738 96.4795 12.2056 96.7683 11.7293 96.978C12.9384 98.7919 13.7261 99.9638 14.0925 100.494H12.2019L10.2839 97.3975H9.37706Z" fill="white"/>
<path d="M19.7313 100.494H15.1038V92.4248H19.7313V93.8266H16.8075V95.5983H19.528V97.0001H16.8075V99.0808H19.7313V100.494Z" fill="white"/>
<path d="M28.5412 100.494H26.3758L22.8804 94.3896H22.831C22.9006 95.4676 22.9354 96.2366 22.9354 96.6965V100.494H21.413V92.4248H23.5619L27.0518 98.4682H27.0903C27.0353 97.4195 27.0078 96.6782 27.0078 96.244V92.4248H28.5412V100.494Z" fill="white"/>
<path d="M33.6689 100.494H31.9651V93.8487H29.7833V92.4248H35.8507V93.8487H33.6689V100.494Z" fill="white"/>
</g>
<defs>
<clipPath id="clip0_58230_74407">
<rect width="137" height="132" rx="12.2857" fill="white"/>
</clipPath>
</defs>
</svg>
